<?xml version="1.0" standalone="no"?>
<!DOCTYPE svg PUBLIC "-//W3C//DTD SVG 20010904//EN"
 "http://www.w3.org/TR/2001/REC-SVG-20010904/DTD/svg10.dtd">
<svg version="1.0" xmlns="http://www.w3.org/2000/svg"
 width="1057.000000pt" height="1057.000000pt" viewBox="0 0 1057.000000 1057.000000"
 preserveAspectRatio="xMidYMid meet">
<metadata>
Created by potrace 1.14, written by Peter Selinger 2001-2017
</metadata>
<g transform="translate(0.000000,1057.000000) scale(0.100000,-0.100000)"
fill="#000000" stroke="none">
<path d="M3780 9199 c-235 -19 -484 -61 -710 -120 -125 -33 -347 -102 -395
-124 -16 -7 -69 -29 -116 -48 -47 -19 -94 -39 -105 -45 -10 -6 -66 -34 -124
-62 -97 -48 -238 -127 -250 -140 -3 -3 -12 -9 -21 -15 -47 -29 -202 -140 -264
-190 -19 -15 -18 -16 15 -10 19 4 60 15 90 26 174 59 484 124 740 154 354 40
813 23 1185 -45 69 -13 207 -39 285 -55 95 -19 340 -81 450 -114 52 -16 124
-36 160 -46 36 -10 103 -30 150 -45 47 -15 119 -37 160 -49 41 -13 84 -27 95
-32 11 -4 121 -42 245 -83 124 -41 299 -99 390 -130 91 -31 197 -66 235 -78
39 -11 79 -25 90 -29 11 -5 65 -23 120 -40 55 -17 120 -37 145 -45 365 -121
875 -224 1250 -253 434 -34 782 -16 1165 60 265 53 513 136 760 254 50 23 140
66 200 95 61 29 140 70 178 91 37 22 100 58 140 81 174 100 471 312 514 367
12 15 19 141 8 141 -3 0 -56 -26 -118 -59 -282 -147 -554 -226 -967 -282 -144
-20 -208 -23 -500 -23 -251 0 -371 4 -480 17 -209 25 -465 65 -599 94 -64 13
-165 35 -226 48 -60 14 -155 36 -210 50 -55 15 -125 32 -155 40 -94 22 -377
101 -610 170 -269 79 -365 107 -545 155 -219 58 -253 68 -315 86 -25 7 -97 25
-160 39 -63 15 -161 38 -217 51 -56 13 -128 28 -160 33 -32 6 -121 21 -198 35
-332 60 -633 86 -970 84 -137 0 -297 -5 -355 -9z"/>
<path d="M2745 8369 c-110 -7 -218 -17 -367 -35 -32 -4 -58 -11 -58 -15 0 -5
-18 -9 -40 -9 -22 0 -40 -4 -40 -9 0 -5 -19 -11 -42 -15 -85 -10 -118 -18
-118 -27 0 -5 -11 -9 -25 -9 -14 0 -45 -9 -67 -20 -23 -11 -48 -20 -55 -20 -7
0 -13 -4 -13 -10 0 -5 -9 -10 -20 -10 -28 0 -100 -23 -100 -32 0 -5 -9 -8 -20
-8 -11 0 -20 -4 -20 -10 0 -5 -13 -10 -28 -10 -16 0 -34 -8 -42 -20 -8 -11
-22 -20 -32 -20 -10 0 -18 -4 -18 -10 0 -5 -7 -10 -15 -10 -9 0 -25 -9 -37
-20 -12 -11 -28 -20 -35 -20 -7 0 -13 -4 -13 -10 0 -5 -8 -10 -18 -10 -10 0
-24 -9 -32 -20 -8 -11 -22 -20 -32 -20 -10 0 -18 -4 -18 -8 0 -5 -12 -15 -27
-23 -15 -8 -47 -33 -71 -56 -23 -24 -47 -43 -52 -43 -6 0 -10 -7 -10 -15 0 -8
-6 -15 -14 -15 -18 0 -77 -57 -95 -93 -8 -15 -21 -27 -28 -27 -7 0 -17 -8 -20
-17 -4 -10 -19 -30 -35 -45 -15 -14 -28 -31 -28 -38 0 -6 -13 -25 -30 -43 -16
-18 -30 -38 -30 -44 0 -7 -4 -13 -10 -13 -5 0 -10 -6 -10 -13 0 -7 -8 -22 -18
-33 -9 -10 -28 -40 -41 -66 -13 -27 -28 -48 -33 -48 -4 0 -8 -13 -8 -30 0 -16
-4 -30 -10 -30 -5 0 -10 -9 -10 -19 0 -11 -4 -23 -10 -26 -5 -3 -10 -17 -10
-31 0 -13 -4 -24 -10 -24 -5 0 -10 -13 -10 -30 0 -16 -4 -30 -10 -30 -5 0 -10
-11 -10 -24 0 -14 -4 -28 -10 -31 -5 -3 -10 -15 -10 -26 0 -10 -4 -19 -10 -19
-5 0 -10 -18 -10 -40 0 -22 -4 -40 -10 -40 -5 0 -10 -18 -10 -40 0 -22 -4 -40
-9 -40 -5 0 -12 -19 -15 -42 -3 -24 -10 -72 -16 -108 -13 -71 -25 -490 -15
-490 13 0 52 47 75 90 14 25 28 47 33 48 4 2 7 12 7 23 0 10 4 19 9 19 5 0 14
14 21 30 7 17 16 30 21 30 5 0 9 9 9 20 0 11 5 20 10 20 6 0 10 9 10 20 0 11
5 20 10 20 6 0 10 6 10 14 0 7 14 27 30 44 17 18 30 36 30 40 0 12 109 122
121 122 5 0 23 14 41 30 17 17 36 30 42 30 6 0 18 9 26 20 8 11 22 20 31 20
10 0 19 3 21 8 4 10 87 52 104 52 8 0 14 5 14 10 0 6 9 10 20 10 11 0 20 5 20
10 0 6 9 10 19 10 11 0 23 5 26 10 3 6 14 10 25 10 10 0 35 8 57 19 36 18 124
46 221 70 23 6 59 15 80 20 38 10 71 16 182 33 100 16 647 22 775 9 176 -18
418 -55 605 -92 52 -11 111 -19 132 -19 21 0 38 -4 38 -10 0 -5 14 -10 30 -10
17 0 30 -4 30 -9 0 -5 24 -11 53 -14 28 -3 72 -10 97 -17 72 -18 131 -30 183
-37 26 -3 47 -9 47 -13 0 -5 19 -10 43 -14 84 -10 117 -18 117 -27 0 -5 19 -9
43 -9 23 0 61 -7 84 -15 23 -8 62 -17 85 -21 24 -3 52 -9 63 -14 25 -11 264
-60 323 -67 23 -3 42 -9 42 -13 0 -4 19 -11 43 -14 66 -8 157 -24 212 -35 28
-6 75 -15 105 -21 30 -5 80 -15 110 -21 120 -23 383 -57 620 -80 143 -14 990
-23 990 -11 0 6 39 13 88 16 195 14 232 18 232 27 0 5 18 9 41 9 22 0 59 4 82
9 23 5 74 15 112 21 73 12 93 17 185 46 50 15 84 22 188 41 17 3 32 9 32 14 0
5 14 9 30 9 17 0 30 5 30 10 0 6 11 10 24 10 14 0 27 4 30 8 3 5 31 14 63 22
32 7 60 15 63 19 6 8 64 30 115 44 22 7 42 14 45 17 5 5 32 16 135 53 33 12
62 25 63 30 2 4 9 7 15 7 18 0 107 43 107 52 0 4 10 8 23 8 12 0 36 9 52 20
17 11 38 20 47 20 9 0 18 4 20 8 2 5 32 24 68 42 36 19 77 42 92 52 14 10 33
18 42 18 9 0 16 4 16 9 0 5 15 14 33 22 34 14 120 69 125 82 2 4 12 7 23 7 10
0 19 4 19 9 0 5 17 17 37 26 20 10 48 28 62 41 14 13 34 24 43 24 10 0 18 4
18 8 0 5 12 15 27 23 15 8 41 26 57 42 16 15 34 27 40 27 6 0 18 9 26 20 8 11
20 20 26 20 17 0 129 108 121 116 -4 4 -31 -2 -60 -14 -29 -12 -58 -22 -65
-22 -6 0 -12 -4 -12 -10 0 -5 -11 -10 -24 -10 -14 0 -27 -4 -30 -8 -3 -4 -28
-14 -56 -22 -28 -8 -53 -18 -56 -22 -3 -4 -16 -8 -30 -8 -13 0 -24 -4 -24 -10
0 -5 -7 -10 -15 -10 -8 0 -23 -4 -33 -9 -9 -4 -48 -18 -87 -29 -38 -11 -95
-28 -125 -37 -30 -10 -71 -21 -90 -25 -19 -5 -53 -14 -75 -20 -22 -6 -62 -15
-90 -20 -27 -6 -70 -15 -95 -20 -25 -6 -85 -15 -135 -20 -49 -5 -148 -16 -220
-24 -164 -19 -279 -19 -525 0 -298 24 -371 31 -420 43 -25 6 -72 16 -105 21
-116 18 -235 40 -320 60 -94 22 -120 29 -160 40 -22 6 -65 16 -97 21 -31 4
-74 15 -95 22 -41 15 -149 48 -223 67 -25 7 -53 16 -62 21 -10 5 -27 9 -38 9
-12 0 -38 9 -60 20 -22 11 -47 20 -57 20 -19 0 -195 56 -225 71 -10 5 -27 9
-37 9 -11 0 -23 5 -26 10 -3 6 -15 10 -26 10 -10 0 -19 5 -19 10 0 6 -15 10
-33 10 -19 0 -37 3 -41 7 -10 10 -78 33 -99 33 -10 0 -37 9 -59 20 -23 11 -52
20 -65 20 -13 0 -23 5 -23 10 0 6 -13 10 -29 10 -17 0 -33 5 -36 10 -3 6 -17
10 -31 10 -13 0 -24 5 -24 10 0 6 -9 10 -20 10 -11 0 -20 5 -20 10 0 6 -11 10
-25 10 -14 0 -45 9 -67 20 -23 11 -52 20 -64 20 -12 0 -43 9 -69 20 -26 11
-58 20 -71 20 -13 0 -24 5 -24 10 0 6 -10 10 -22 10 -13 0 -75 19 -138 41 -63
23 -140 47 -171 54 -30 7 -66 18 -80 25 -13 8 -42 17 -64 22 -22 5 -58 13 -80
19 -22 6 -60 14 -85 19 -76 15 -100 22 -100 30 0 4 -21 10 -47 13 -27 4 -70
11 -98 17 -27 5 -74 13 -102 16 -29 4 -53 10 -53 14 0 4 -28 10 -62 14 -35 4
-92 11 -128 16 -276 42 -682 58 -985 39z"/>
<path d="M2505 6579 c-33 -3 -84 -16 -113 -28 -29 -11 -64 -21 -78 -21 -46 0
-189 -86 -272 -164 -24 -23 -48 -42 -53 -44 -5 -2 -9 -9 -9 -17 0 -7 -7 -18
-16 -26 -30 -24 -87 -121 -111 -187 -76 -207 -68 -462 18 -650 16 -35 29 -65
29 -68 0 -10 65 -98 105 -143 73 -81 90 -95 180 -153 28 -18 52 -36 53 -40 2
-5 9 -8 16 -8 7 0 30 -9 53 -20 91 -43 192 -63 328 -64 78 0 152 5 185 13 71
17 214 72 218 83 2 4 8 8 14 8 19 0 104 66 174 135 66 65 133 155 161 215 34
73 53 125 53 144 0 12 5 27 12 34 30 30 9 430 -23 466 -5 6 -9 16 -9 23 0 8
-9 33 -20 55 -11 23 -20 48 -20 55 0 7 -4 13 -10 13 -5 0 -10 5 -10 11 0 19
-77 123 -121 164 -95 88 -216 165 -258 165 -11 0 -52 12 -93 26 -62 22 -92 26
-198 28 -69 1 -152 -1 -185 -5z"/>
<path d="M1085 6508 c-43 -23 -125 -105 -125 -125 0 -7 -4 -13 -8 -13 -12 0
-48 -82 -71 -160 -39 -135 -46 -199 -45 -435 1 -218 8 -304 43 -495 10 -54 59
-247 71 -275 4 -11 14 -40 21 -65 7 -25 16 -49 21 -54 4 -6 8 -20 8 -32 0 -13
5 -26 10 -29 6 -3 10 -17 10 -31 0 -13 4 -24 9 -24 5 0 12 -12 16 -27 3 -14
35 -86 71 -158 35 -73 64 -137 64 -143 0 -6 4 -12 8 -14 7 -3 34 -44 82 -127
8 -14 27 -42 43 -62 15 -20 27 -40 27 -45 0 -5 16 -26 35 -48 19 -21 35 -41
35 -45 0 -3 17 -25 38 -47 20 -23 53 -61 72 -84 64 -76 193 -213 372 -395 325
-330 393 -402 488 -520 35 -44 70 -86 77 -93 7 -7 20 -26 30 -42 9 -17 21 -30
25 -30 4 0 8 -6 8 -14 0 -7 6 -19 14 -25 29 -24 166 -280 166 -310 0 -5 3 -11
8 -13 7 -3 41 -130 61 -233 5 -27 15 -74 20 -103 6 -30 11 -69 11 -88 0 -18 4
-53 10 -76 5 -24 17 -89 25 -145 41 -271 119 -414 265 -488 101 -51 161 -65
279 -65 125 0 197 16 304 64 227 104 407 276 792 755 128 159 399 554 454 664
8 15 18 27 23 27 4 0 8 5 8 10 0 6 22 43 48 83 27 40 60 93 75 119 15 26 43
63 62 83 19 21 37 46 41 58 3 11 10 25 15 31 5 6 22 27 39 46 16 19 35 46 42
60 7 14 29 54 50 89 21 34 38 67 38 72 0 5 4 9 8 9 5 0 18 18 31 40 13 23 46
56 79 79 31 21 84 67 117 102 110 117 348 320 495 425 30 21 57 41 60 45 3 3
43 34 90 69 81 59 149 114 213 170 54 47 82 108 82 180 0 121 -36 160 -145
160 -164 0 -483 -171 -1185 -635 -296 -195 -283 -187 -408 -259 -203 -117
-442 -223 -528 -233 l-47 -6 14 89 c18 114 17 111 56 119 140 29 268 110 353
226 112 153 132 367 51 544 -18 39 -39 77 -48 85 -26 27 -42 64 -29 68 6 2 11
9 11 16 0 7 8 21 17 32 10 10 30 35 44 54 67 90 211 234 309 310 25 19 54 43
64 52 11 10 26 18 33 18 7 0 13 4 13 9 0 5 8 11 18 15 9 3 44 26 77 50 33 25
101 71 152 103 51 32 128 81 171 108 44 28 182 102 308 165 289 145 326 178
340 303 7 61 -10 175 -29 194 -47 48 -283 78 -422 54 -109 -19 -224 -48 -300
-76 -39 -15 -99 -37 -135 -49 -148 -53 -428 -191 -620 -306 -25 -15 -79 -46
-120 -71 -41 -24 -77 -46 -80 -49 -3 -3 -24 -15 -48 -28 -23 -13 -72 -42 -107
-65 -36 -23 -87 -55 -115 -72 -27 -16 -50 -33 -50 -37 0 -5 -5 -8 -11 -8 -5 0
-37 -18 -69 -40 -32 -22 -63 -40 -69 -40 -5 0 -11 -4 -13 -9 -1 -4 -66 -49
-143 -100 -77 -50 -149 -99 -160 -108 -11 -10 -41 -29 -65 -42 -25 -14 -47
-27 -50 -31 -3 -3 -39 -26 -80 -50 -41 -24 -77 -48 -80 -51 -3 -4 -50 -29
-105 -54 -55 -26 -108 -51 -118 -56 -38 -20 -172 -70 -240 -90 -114 -33 -145
-38 -275 -49 -192 -15 -311 2 -472 66 -25 10 -47 20 -50 23 -3 3 -21 15 -40
25 -53 29 -170 120 -215 168 -54 57 -145 175 -145 188 0 5 -4 10 -9 10 -9 0
-151 281 -151 299 0 6 -4 19 -9 29 -26 47 -72 222 -91 342 -40 266 -41 271
-72 383 -12 43 -43 111 -59 131 -5 6 -18 21 -28 33 -49 60 -180 81 -256 41z"/>
</g>
</svg>
